<?xml version="1.0" encoding="utf-8"?>
<!-- Generator: Adobe Illustrator 26.0.3, SVG Export Plug-In . SVG Version: 6.00 Build 0)  -->
<svg version="1.1" id="Layer_1" xmlns="http://www.w3.org/2000/svg" xmlns:xlink="http://www.w3.org/1999/xlink" x="0px" y="0px"
	 viewBox="0 0 99 58" style="enable-background:new 0 0 99 58;" xml:space="preserve">
<style type="text/css">
	.st0{fill:#FFFFFF;}
</style>
<g>
	<g>
		<path class="st0" d="M83.89,27.28C83.89,27.28,83.89,27.28,83.89,27.28h-0.21c-0.23,0.65-0.49,1.3-0.8,1.93
			c-0.87,1.62-2.08,3-3.63,4.12c-1.87,1.35-3.93,2.11-6.19,2.29c-0.11,0.01-0.23,0.01-0.35,0.02c-0.2,0.01-0.41,0.02-0.62,0.02
			c-0.21,0-0.41-0.01-0.62-0.02c-0.12,0-0.23-0.01-0.35-0.02c-0.63-0.04-1.24-0.14-1.84-0.26c-0.26-0.06-0.52-0.12-0.78-0.2
			c-0.02-0.01-0.04-0.01-0.06-0.02c-1.34-0.41-2.62-1.06-3.77-1.91c-0.1-0.07-0.2-0.15-0.3-0.23c-0.11-0.09-0.22-0.17-0.32-0.26
			c-0.26-0.22-0.52-0.46-0.77-0.71c-0.13-0.13-0.26-0.24-0.39-0.35c-0.24-0.26-0.48-0.52-0.71-0.79c-2.16-2.64-3.07-5.66-2.73-9.06
			c0.27-2.65,1.28-4.97,3.04-6.95c1.72-1.93,3.82-3.2,6.31-3.82l0.01-0.05c0.64-0.15,1.3-0.25,1.98-0.29
			c0.11-0.01,0.23-0.01,0.35-0.02c0.19-0.01,0.37-0.02,0.55-0.02c0.02,0,0.04,0,0.06,0c0.02,0,0.04,0,0.06,0
			c0.19,0,0.37,0.02,0.55,0.02c0.12,0.01,0.23,0.01,0.35,0.02c3.02,0.2,5.64,1.38,7.84,3.58c1.37,1.37,2.34,2.91,2.93,4.6h8.42
			c-0.98-4.73-3.34-8.65-7.1-11.76c-3.78-3.13-8.13-4.7-13.05-4.71c-2.55,0.01-4.95,0.44-7.2,1.28c-0.05,0.02-0.09,0.04-0.14,0.05
			c-0.17,0.07-0.35,0.13-0.52,0.21c-2.44,1-4.65,2.49-6.65,4.46c-3.51,3.46-5.51,7.65-6,12.58c-0.57,5.66,0.95,10.7,4.55,15.11
			c1.95,2.38,4.2,4.2,6.75,5.46c2.88,1.53,6.04,2.31,9.46,2.33l0.01,0c0.02,0,0.04,0,0.06,0c0.02,0,0.04,0,0.06,0h20.62V27.28H83.89
			z"/>
	</g>
	<g>
		<path class="st0" d="M20.92,53.08c0,0.2-0.03,0.38-0.09,0.54c-0.06,0.16-0.14,0.3-0.25,0.41c-0.11,0.11-0.24,0.2-0.4,0.26
			s-0.34,0.09-0.56,0.09h-0.4v1.44c0,0.02,0,0.03-0.01,0.04c-0.01,0.01-0.02,0.02-0.04,0.03s-0.04,0.01-0.07,0.02
			c-0.03,0.01-0.07,0.01-0.11,0.01c-0.05,0-0.08,0-0.11-0.01c-0.03-0.01-0.05-0.01-0.07-0.02s-0.03-0.02-0.04-0.03
			c-0.01-0.01-0.01-0.03-0.01-0.04v-3.68c0-0.08,0.02-0.14,0.06-0.18c0.04-0.03,0.08-0.05,0.13-0.05h0.75c0.08,0,0.15,0,0.22,0.01
			s0.15,0.02,0.25,0.05c0.09,0.02,0.19,0.07,0.29,0.13c0.1,0.06,0.18,0.14,0.25,0.24c0.07,0.09,0.12,0.2,0.16,0.33
			C20.9,52.79,20.92,52.93,20.92,53.08z M20.43,53.12c0-0.16-0.03-0.3-0.08-0.41c-0.05-0.11-0.12-0.19-0.2-0.24
			c-0.08-0.05-0.16-0.09-0.24-0.1c-0.08-0.01-0.17-0.02-0.24-0.02h-0.43v1.6h0.42c0.14,0,0.26-0.02,0.35-0.06
			c0.09-0.04,0.17-0.1,0.23-0.17c0.06-0.07,0.11-0.16,0.14-0.26C20.41,53.35,20.43,53.24,20.43,53.12z"/>
		<path class="st0" d="M26.62,55.71c0.01,0.05,0.02,0.08,0.02,0.11s-0.01,0.05-0.02,0.06c-0.01,0.01-0.04,0.02-0.07,0.03
			c-0.03,0-0.08,0.01-0.13,0.01c-0.06,0-0.1,0-0.13,0c-0.03,0-0.06-0.01-0.08-0.02c-0.02-0.01-0.03-0.02-0.04-0.03
			c-0.01-0.01-0.02-0.03-0.02-0.05l-0.3-0.97h-1.46l-0.29,0.96c-0.01,0.02-0.01,0.03-0.02,0.05c-0.01,0.01-0.02,0.02-0.04,0.03
			c-0.02,0.01-0.04,0.02-0.07,0.02c-0.03,0-0.07,0.01-0.12,0.01c-0.05,0-0.1,0-0.13-0.01c-0.03-0.01-0.06-0.01-0.07-0.03
			c-0.01-0.01-0.02-0.04-0.02-0.06s0.01-0.06,0.02-0.11l1.17-3.7c0.01-0.02,0.02-0.04,0.03-0.06c0.01-0.01,0.03-0.03,0.05-0.03
			c0.02-0.01,0.05-0.01,0.09-0.02c0.04,0,0.08,0,0.13,0c0.06,0,0.11,0,0.14,0c0.04,0,0.07,0.01,0.09,0.02
			c0.02,0.01,0.04,0.02,0.05,0.04c0.01,0.02,0.02,0.03,0.03,0.06L26.62,55.71z M25.11,52.44L25.11,52.44l-0.61,1.99h1.22
			L25.11,52.44z"/>
		<path class="st0" d="M32.13,53.08c0,0.2-0.03,0.38-0.09,0.54s-0.14,0.3-0.25,0.41c-0.11,0.11-0.24,0.2-0.4,0.26
			s-0.34,0.09-0.56,0.09h-0.4v1.44c0,0.02,0,0.03-0.01,0.04c-0.01,0.01-0.02,0.02-0.04,0.03s-0.04,0.01-0.07,0.02
			c-0.03,0.01-0.07,0.01-0.11,0.01c-0.05,0-0.08,0-0.11-0.01c-0.03-0.01-0.05-0.01-0.07-0.02s-0.03-0.02-0.04-0.03
			c-0.01-0.01-0.01-0.03-0.01-0.04v-3.68c0-0.08,0.02-0.14,0.06-0.18c0.04-0.03,0.08-0.05,0.13-0.05h0.75c0.08,0,0.15,0,0.22,0.01
			c0.07,0.01,0.15,0.02,0.25,0.05c0.09,0.02,0.19,0.07,0.29,0.13c0.1,0.06,0.18,0.14,0.25,0.24c0.07,0.09,0.12,0.2,0.16,0.33
			C32.11,52.79,32.13,52.93,32.13,53.08z M31.64,53.12c0-0.16-0.03-0.3-0.08-0.41c-0.05-0.11-0.12-0.19-0.2-0.24
			c-0.08-0.05-0.16-0.09-0.24-0.1c-0.08-0.01-0.17-0.02-0.24-0.02h-0.43v1.6h0.42c0.14,0,0.26-0.02,0.35-0.06
			c0.09-0.04,0.17-0.1,0.23-0.17c0.06-0.07,0.11-0.16,0.14-0.26C31.63,53.35,31.64,53.24,31.64,53.12z"/>
		<path class="st0" d="M37.57,55.68c0,0.04,0,0.07-0.01,0.1c0,0.03-0.01,0.05-0.02,0.07c-0.01,0.02-0.02,0.03-0.03,0.04
			c-0.01,0.01-0.02,0.01-0.04,0.01h-1.68c-0.04,0-0.08-0.02-0.12-0.05c-0.04-0.03-0.06-0.09-0.06-0.17v-3.55
			c0-0.08,0.02-0.14,0.06-0.17c0.04-0.03,0.08-0.05,0.12-0.05h1.66c0.01,0,0.03,0,0.04,0.01c0.01,0.01,0.02,0.02,0.03,0.04
			c0.01,0.02,0.01,0.04,0.02,0.07s0.01,0.06,0.01,0.1c0,0.04,0,0.07-0.01,0.1s-0.01,0.05-0.02,0.07c-0.01,0.02-0.02,0.03-0.03,0.04
			c-0.01,0.01-0.02,0.01-0.04,0.01h-1.37v1.25h1.17c0.01,0,0.03,0,0.04,0.01c0.01,0.01,0.02,0.02,0.03,0.04s0.01,0.04,0.02,0.07
			c0,0.03,0.01,0.06,0.01,0.1c0,0.04,0,0.07-0.01,0.1c0,0.03-0.01,0.05-0.02,0.06s-0.02,0.03-0.03,0.04
			c-0.01,0.01-0.02,0.01-0.04,0.01h-1.17v1.43h1.39c0.01,0,0.03,0,0.04,0.01c0.01,0.01,0.02,0.02,0.03,0.04
			c0.01,0.02,0.02,0.04,0.02,0.07C37.57,55.6,37.57,55.64,37.57,55.68z"/>
		<path class="st0" d="M43.44,55.82c0,0.02,0,0.03-0.01,0.04c-0.01,0.01-0.02,0.02-0.04,0.03c-0.02,0.01-0.04,0.01-0.08,0.02
			c-0.03,0-0.08,0.01-0.13,0.01c-0.05,0-0.09,0-0.11-0.01c-0.03,0-0.05-0.01-0.07-0.02c-0.02-0.01-0.03-0.02-0.04-0.04
			s-0.02-0.04-0.03-0.06l-0.32-0.94c-0.04-0.11-0.08-0.2-0.12-0.29s-0.09-0.17-0.14-0.23c-0.06-0.06-0.12-0.12-0.2-0.15
			c-0.08-0.04-0.17-0.05-0.27-0.05h-0.31v1.7c0,0.02,0,0.03-0.01,0.04c-0.01,0.01-0.02,0.02-0.04,0.03s-0.04,0.01-0.07,0.02
			c-0.03,0.01-0.07,0.01-0.11,0.01s-0.08,0-0.11-0.01c-0.03-0.01-0.05-0.01-0.07-0.02c-0.02-0.01-0.03-0.02-0.04-0.03
			c-0.01-0.01-0.01-0.03-0.01-0.04v-3.69c0-0.08,0.02-0.14,0.06-0.17c0.04-0.03,0.08-0.05,0.12-0.05h0.74c0.09,0,0.16,0,0.22,0.01
			c0.06,0.01,0.11,0.01,0.16,0.02c0.14,0.03,0.25,0.07,0.36,0.13c0.1,0.06,0.19,0.13,0.26,0.22c0.07,0.09,0.12,0.19,0.16,0.3
			c0.04,0.11,0.05,0.24,0.05,0.38c0,0.13-0.02,0.25-0.05,0.36c-0.03,0.11-0.08,0.2-0.14,0.28c-0.06,0.08-0.13,0.15-0.21,0.21
			c-0.08,0.06-0.18,0.11-0.28,0.15c0.06,0.03,0.11,0.07,0.16,0.11s0.09,0.1,0.13,0.16s0.08,0.13,0.11,0.21
			c0.04,0.08,0.07,0.17,0.11,0.27l0.31,0.88c0.03,0.07,0.04,0.13,0.05,0.16C43.43,55.78,43.44,55.8,43.44,55.82z M42.74,53.02
			c0-0.16-0.03-0.29-0.09-0.4c-0.06-0.11-0.16-0.19-0.31-0.23c-0.05-0.01-0.1-0.02-0.15-0.03c-0.06-0.01-0.13-0.01-0.22-0.01h-0.39
			v1.34h0.45c0.12,0,0.23-0.02,0.32-0.05c0.09-0.03,0.16-0.08,0.22-0.14s0.1-0.13,0.13-0.21S42.74,53.11,42.74,53.02z"/>
		<path class="st0" d="M53.25,55.33c0,0.03,0,0.06,0,0.09c0,0.02,0,0.05-0.01,0.06c0,0.02-0.01,0.03-0.02,0.05
			c-0.01,0.01-0.02,0.03-0.04,0.05c-0.02,0.02-0.06,0.05-0.11,0.09c-0.06,0.04-0.13,0.08-0.22,0.12c-0.09,0.04-0.18,0.07-0.29,0.1
			c-0.11,0.03-0.23,0.04-0.36,0.04c-0.23,0-0.43-0.04-0.62-0.13c-0.18-0.09-0.34-0.21-0.47-0.38c-0.13-0.17-0.23-0.38-0.3-0.62
			c-0.07-0.25-0.1-0.53-0.1-0.85c0-0.33,0.04-0.63,0.11-0.88c0.07-0.26,0.18-0.48,0.32-0.66c0.14-0.18,0.3-0.32,0.49-0.41
			c0.19-0.09,0.4-0.14,0.63-0.14c0.1,0,0.2,0.01,0.29,0.03s0.18,0.05,0.27,0.08c0.08,0.03,0.15,0.07,0.22,0.11
			c0.06,0.04,0.11,0.08,0.13,0.11c0.02,0.03,0.04,0.05,0.05,0.06c0.01,0.01,0.01,0.03,0.02,0.05c0,0.02,0.01,0.04,0.01,0.07
			c0,0.03,0,0.06,0,0.1c0,0.04,0,0.08-0.01,0.1s-0.01,0.05-0.02,0.07c-0.01,0.02-0.02,0.03-0.03,0.04
			c-0.01,0.01-0.02,0.01-0.04,0.01c-0.03,0-0.06-0.02-0.11-0.06c-0.05-0.04-0.1-0.08-0.18-0.13c-0.07-0.05-0.16-0.09-0.26-0.13
			c-0.1-0.04-0.23-0.06-0.37-0.06c-0.16,0-0.3,0.04-0.43,0.11c-0.13,0.07-0.24,0.18-0.33,0.31c-0.09,0.14-0.16,0.31-0.21,0.5
			c-0.05,0.2-0.07,0.42-0.07,0.68c0,0.25,0.02,0.48,0.07,0.67c0.05,0.19,0.12,0.36,0.21,0.49c0.09,0.13,0.2,0.23,0.33,0.3
			c0.13,0.07,0.28,0.1,0.44,0.1c0.14,0,0.26-0.02,0.37-0.06c0.1-0.04,0.19-0.08,0.27-0.13c0.07-0.05,0.13-0.09,0.18-0.13
			c0.05-0.04,0.08-0.06,0.11-0.06c0.01,0,0.02,0,0.03,0.01s0.02,0.02,0.02,0.04c0.01,0.02,0.01,0.04,0.01,0.07
			C53.25,55.25,53.25,55.29,53.25,55.33z"/>
		<path class="st0" d="M59.53,53.86c0,0.32-0.03,0.61-0.1,0.87c-0.07,0.26-0.17,0.48-0.3,0.66c-0.13,0.18-0.3,0.32-0.5,0.42
			c-0.2,0.1-0.43,0.15-0.7,0.15c-0.26,0-0.49-0.04-0.68-0.13c-0.19-0.09-0.35-0.22-0.48-0.39c-0.13-0.17-0.22-0.38-0.28-0.63
			c-0.06-0.25-0.09-0.54-0.09-0.87c0-0.31,0.03-0.6,0.1-0.86c0.07-0.26,0.17-0.47,0.3-0.65c0.13-0.18,0.3-0.32,0.5-0.42
			c0.2-0.1,0.43-0.15,0.7-0.15c0.26,0,0.48,0.04,0.67,0.13s0.35,0.22,0.48,0.39c0.13,0.17,0.22,0.38,0.28,0.63
			C59.5,53.25,59.53,53.53,59.53,53.86z M59.04,53.89c0-0.23-0.02-0.44-0.05-0.63c-0.04-0.19-0.09-0.36-0.18-0.51
			c-0.08-0.14-0.19-0.25-0.33-0.33c-0.14-0.08-0.31-0.12-0.51-0.12s-0.37,0.04-0.51,0.13c-0.14,0.09-0.25,0.2-0.33,0.35
			c-0.09,0.14-0.15,0.31-0.18,0.5c-0.04,0.19-0.06,0.39-0.06,0.61c0,0.23,0.02,0.45,0.05,0.65s0.09,0.37,0.17,0.51
			c0.08,0.14,0.19,0.25,0.33,0.33s0.31,0.12,0.51,0.12c0.2,0,0.37-0.04,0.51-0.13c0.14-0.09,0.25-0.2,0.34-0.35
			c0.08-0.15,0.14-0.32,0.18-0.51S59.04,54.11,59.04,53.89z"/>
		<path class="st0" d="M65.38,55.82c0,0.02,0,0.03-0.01,0.04c-0.01,0.01-0.02,0.02-0.04,0.03c-0.02,0.01-0.04,0.01-0.08,0.02
			c-0.03,0-0.08,0.01-0.13,0.01c-0.05,0-0.09,0-0.11-0.01c-0.03,0-0.05-0.01-0.07-0.02c-0.02-0.01-0.03-0.02-0.04-0.04
			s-0.02-0.04-0.03-0.06l-0.32-0.94c-0.04-0.11-0.08-0.2-0.12-0.29c-0.04-0.09-0.09-0.17-0.14-0.23c-0.06-0.06-0.12-0.12-0.2-0.15
			c-0.08-0.04-0.17-0.05-0.27-0.05h-0.31v1.7c0,0.02,0,0.03-0.01,0.04c-0.01,0.01-0.02,0.02-0.04,0.03s-0.04,0.01-0.07,0.02
			c-0.03,0.01-0.07,0.01-0.11,0.01s-0.08,0-0.11-0.01c-0.03-0.01-0.05-0.01-0.07-0.02c-0.02-0.01-0.03-0.02-0.04-0.03
			c-0.01-0.01-0.01-0.03-0.01-0.04v-3.69c0-0.08,0.02-0.14,0.06-0.17c0.04-0.03,0.08-0.05,0.12-0.05h0.74c0.09,0,0.16,0,0.22,0.01
			c0.06,0.01,0.11,0.01,0.16,0.02c0.14,0.03,0.25,0.07,0.36,0.13c0.1,0.06,0.19,0.13,0.26,0.22c0.07,0.09,0.12,0.19,0.16,0.3
			c0.04,0.11,0.05,0.24,0.05,0.38c0,0.13-0.02,0.25-0.05,0.36c-0.03,0.11-0.08,0.2-0.14,0.28c-0.06,0.08-0.13,0.15-0.21,0.21
			c-0.08,0.06-0.18,0.11-0.28,0.15c0.06,0.03,0.11,0.07,0.16,0.11s0.09,0.1,0.13,0.16c0.04,0.06,0.08,0.13,0.11,0.21
			c0.04,0.08,0.07,0.17,0.11,0.27l0.31,0.88c0.03,0.07,0.04,0.13,0.05,0.16C65.37,55.78,65.38,55.8,65.38,55.82z M64.68,53.02
			c0-0.16-0.03-0.29-0.09-0.4c-0.06-0.11-0.16-0.19-0.31-0.23c-0.05-0.01-0.1-0.02-0.15-0.03c-0.06-0.01-0.13-0.01-0.22-0.01h-0.39
			v1.34h0.45c0.12,0,0.23-0.02,0.32-0.05c0.09-0.03,0.16-0.08,0.22-0.14s0.1-0.13,0.13-0.21C64.66,53.2,64.68,53.11,64.68,53.02z"/>
		<path class="st0" d="M71.47,55.68c0,0.04-0.01,0.08-0.02,0.1c-0.01,0.03-0.03,0.05-0.05,0.07c-0.02,0.02-0.04,0.03-0.07,0.04
			c-0.02,0.01-0.05,0.01-0.07,0.01h-0.15c-0.05,0-0.09-0.01-0.13-0.02c-0.04-0.01-0.07-0.03-0.1-0.06c-0.03-0.03-0.07-0.07-0.1-0.12
			c-0.03-0.05-0.07-0.12-0.1-0.2l-1.07-2.27c-0.06-0.12-0.11-0.24-0.17-0.37c-0.06-0.13-0.11-0.25-0.16-0.37h-0.01
			c0,0.15,0.01,0.3,0.01,0.45c0,0.15,0,0.31,0,0.46v2.41c0,0.01,0,0.03-0.01,0.04c-0.01,0.01-0.02,0.02-0.04,0.03
			c-0.02,0.01-0.04,0.01-0.07,0.02c-0.03,0.01-0.07,0.01-0.11,0.01c-0.05,0-0.08,0-0.11-0.01c-0.03-0.01-0.05-0.01-0.07-0.02
			s-0.03-0.02-0.04-0.03c-0.01-0.01-0.01-0.03-0.01-0.04v-3.68c0-0.08,0.02-0.14,0.06-0.18c0.04-0.03,0.09-0.05,0.13-0.05h0.23
			c0.05,0,0.1,0.01,0.14,0.02c0.04,0.01,0.07,0.03,0.1,0.05s0.06,0.06,0.08,0.1c0.03,0.04,0.06,0.09,0.09,0.16l0.82,1.75
			c0.05,0.11,0.1,0.21,0.15,0.31c0.05,0.1,0.09,0.2,0.14,0.3c0.04,0.1,0.09,0.2,0.13,0.29c0.04,0.1,0.08,0.19,0.13,0.29h0
			c0-0.16-0.01-0.33-0.01-0.51c0-0.18,0-0.34,0-0.51V52c0-0.01,0-0.03,0.01-0.04c0.01-0.01,0.02-0.02,0.04-0.03
			c0.02-0.01,0.04-0.02,0.07-0.02s0.07-0.01,0.12-0.01c0.04,0,0.08,0,0.11,0.01c0.03,0,0.05,0.01,0.07,0.02s0.03,0.02,0.04,0.03
			c0.01,0.01,0.01,0.03,0.01,0.04V55.68z"/>
		<path class="st0" d="M77.13,55.68c0,0.04,0,0.07-0.01,0.1s-0.01,0.05-0.02,0.07c-0.01,0.02-0.02,0.03-0.03,0.04
			c-0.01,0.01-0.02,0.01-0.04,0.01h-1.68c-0.04,0-0.08-0.02-0.12-0.05c-0.04-0.03-0.06-0.09-0.06-0.17v-3.55
			c0-0.08,0.02-0.14,0.06-0.17c0.04-0.03,0.08-0.05,0.12-0.05h1.66c0.01,0,0.03,0,0.04,0.01c0.01,0.01,0.02,0.02,0.03,0.04
			c0.01,0.02,0.01,0.04,0.02,0.07c0,0.03,0.01,0.06,0.01,0.1c0,0.04,0,0.07-0.01,0.1c0,0.03-0.01,0.05-0.02,0.07
			c-0.01,0.02-0.02,0.03-0.03,0.04c-0.01,0.01-0.02,0.01-0.04,0.01h-1.37v1.25h1.17c0.01,0,0.03,0,0.04,0.01s0.02,0.02,0.03,0.04
			s0.01,0.04,0.02,0.07c0,0.03,0.01,0.06,0.01,0.1c0,0.04,0,0.07-0.01,0.1s-0.01,0.05-0.02,0.06s-0.02,0.03-0.03,0.04
			c-0.01,0.01-0.02,0.01-0.04,0.01h-1.17v1.43h1.39c0.01,0,0.03,0,0.04,0.01s0.02,0.02,0.03,0.04c0.01,0.02,0.02,0.04,0.02,0.07
			S77.13,55.64,77.13,55.68z"/>
		<path class="st0" d="M83,55.82c0,0.02,0,0.03-0.01,0.04c-0.01,0.01-0.02,0.02-0.04,0.03c-0.02,0.01-0.04,0.01-0.08,0.02
			c-0.03,0-0.08,0.01-0.13,0.01c-0.05,0-0.09,0-0.11-0.01c-0.03,0-0.05-0.01-0.07-0.02c-0.02-0.01-0.03-0.02-0.04-0.04
			c-0.01-0.02-0.02-0.04-0.03-0.06l-0.32-0.94c-0.04-0.11-0.08-0.2-0.12-0.29s-0.09-0.17-0.14-0.23c-0.06-0.06-0.12-0.12-0.2-0.15
			c-0.08-0.04-0.17-0.05-0.27-0.05h-0.31v1.7c0,0.02,0,0.03-0.01,0.04c-0.01,0.01-0.02,0.02-0.04,0.03s-0.04,0.01-0.07,0.02
			c-0.03,0.01-0.07,0.01-0.11,0.01s-0.08,0-0.11-0.01c-0.03-0.01-0.05-0.01-0.07-0.02c-0.02-0.01-0.03-0.02-0.04-0.03
			c-0.01-0.01-0.01-0.03-0.01-0.04v-3.69c0-0.08,0.02-0.14,0.06-0.17c0.04-0.03,0.08-0.05,0.12-0.05h0.74c0.09,0,0.16,0,0.22,0.01
			c0.06,0.01,0.11,0.01,0.16,0.02c0.14,0.03,0.25,0.07,0.36,0.13c0.1,0.06,0.19,0.13,0.26,0.22c0.07,0.09,0.12,0.19,0.16,0.3
			c0.04,0.11,0.05,0.24,0.05,0.38c0,0.13-0.02,0.25-0.05,0.36c-0.03,0.11-0.08,0.2-0.14,0.28c-0.06,0.08-0.13,0.15-0.21,0.21
			c-0.08,0.06-0.18,0.11-0.28,0.15c0.06,0.03,0.11,0.07,0.16,0.11s0.09,0.1,0.13,0.16c0.04,0.06,0.08,0.13,0.11,0.21
			c0.04,0.08,0.07,0.17,0.11,0.27l0.31,0.88c0.03,0.07,0.04,0.13,0.05,0.16C82.99,55.78,83,55.8,83,55.82z M82.3,53.02
			c0-0.16-0.03-0.29-0.09-0.4c-0.06-0.11-0.16-0.19-0.31-0.23c-0.05-0.01-0.1-0.02-0.15-0.03c-0.06-0.01-0.13-0.01-0.22-0.01h-0.39
			v1.34h0.45c0.12,0,0.23-0.02,0.32-0.05c0.09-0.03,0.16-0.08,0.22-0.14s0.1-0.13,0.13-0.21C82.28,53.2,82.3,53.11,82.3,53.02z"/>
	</g>
	<g>
		<path class="st0" d="M26.84,2.05c-5.75,0-10.65,2.05-14.7,6.16c-3.87,3.92-5.92,9.29-5.92,14.8v26.16c0,0.21,0.17,0.38,0.38,0.38
			h0c4.35,0,7.87-3.52,7.87-7.87v-1.8c0-0.31,0.35-0.48,0.6-0.3c3.24,2.27,6.82,3.5,10.74,3.68c6.28,0.29,12.41-2.34,16.58-7.05
			c3.37-3.81,5.06-8.33,5.06-13.54V2.42c0-0.21-0.17-0.38-0.38-0.38H26.84z M35.89,31.08c-2.58,2.74-5.74,4.05-9.5,3.93
			c-2.96-0.09-5.82-1.28-7.98-3.31c-2.74-2.58-4.05-5.74-3.93-9.5c0.09-2.96,1.27-5.82,3.31-7.98c2.58-2.74,5.74-4.05,9.5-3.94
			c2.96,0.09,5.82,1.27,7.97,3.31c2.74,2.58,4.05,5.74,3.94,9.5C39.1,26.07,37.92,28.93,35.89,31.08z"/>
	</g>
</g>
</svg>
